<svg width="143" height="38" viewBox="0 0 143 38" fill="none" xmlns="http://www.w3.org/2000/svg">
<path d="M0.0985 9.91642C0.0356659 10.3622 -0.00622303 10.822 0.000758533 11.2887C0.0217032 13.4899 0.81062 15.4892 2.09523 17.0356L19.3257 34.9728L21.7414 32.4581L0.0985 9.91642Z" fill="white"/>
<path d="M14.3757 4.65717C12.8258 3.16647 10.7593 2.25393 8.48329 2.28179C8.0993 2.28179 7.72928 2.32359 7.35925 2.37932L29.1697 25.0951L31.5923 22.5805L14.3757 4.65717Z" fill="white"/>
<path d="M32.1859 2.03104C29.9867 2.05194 27.9969 2.94358 26.4959 4.37855L8.21814 23.3955L10.6338 25.9102L33.4914 2.13553C33.0655 2.07284 32.6327 2.03104 32.1928 2.03104" fill="white"/>
<path d="M36.996 3.50786L13.3285 28.1323L15.7441 30.647L39.4116 6.02952C38.7763 5.03339 37.9525 4.16962 36.996 3.51483" fill="white"/>
<path d="M40.8429 10.8568C40.8429 10.4528 40.801 10.0557 40.7451 9.6656L17.8805 33.4542L20.2961 35.9689L38.7135 16.8126C40.0539 15.2244 40.8638 13.1416 40.8359 10.8637" fill="white"/>
<path d="M3.84752 3.75868C3.3658 4.08607 2.91898 4.4692 2.51405 4.88716L2.40234 5.00558C2.0393 5.39567 1.71117 5.82059 1.42493 6.2664L25.1273 30.9466L27.543 28.4319L3.84752 3.75868Z" fill="white"/>
<path d="M29.1347 20.017L26.7121 22.5317L21.4061 17.0147L23.8287 14.5L29.1347 20.017Z" fill="white"/>
<path d="M19.5631 30.1872L17.1475 32.7019L11.7368 27.0665L14.1524 24.5448L19.5631 30.1872Z" fill="white"/>
<path d="M18.7323 27.5333L16.3167 25.0186L21.8251 19.2927L24.2407 21.8074L18.7323 27.5333Z" fill="white"/>
<path d="M56.1379 13.598V15.686H54.1759V13.598H56.1379ZM59.2159 13.598V15.686H57.2539V13.598H59.2159ZM56.7139 17C59.8459 17 61.4299 18.224 61.4299 21.68V26H51.9799V21.68C51.9799 18.224 53.5639 17 56.7139 17ZM56.7139 18.764C54.5179 18.764 53.9419 19.358 53.9419 21.68V24.236H59.4679V21.68C59.4679 19.358 58.8919 18.764 56.7139 18.764ZM65.7943 13.598V15.686H63.8323V13.598H65.7943ZM67.8463 24.236C68.1343 24.236 68.2063 24.578 68.2063 25.118C68.2063 25.658 68.1343 26 67.8463 26H65.7763V26.756C65.7763 28.97 64.4263 30.446 62.4823 30.446C62.1763 30.446 61.7983 30.41 61.4743 30.374L61.7083 28.61C62.0683 28.646 62.3203 28.682 62.4823 28.682C63.2923 28.682 63.8143 28.016 63.8143 26.756V17H65.7763V24.236H67.8463ZM74.7836 13.598V15.686H72.8216V13.598H74.7836ZM72.6596 24.236H76.9616V26H67.8536C67.5476 26 67.4936 25.658 67.4936 25.118C67.4936 24.578 67.5476 24.236 67.8536 24.236H70.3736C69.9776 23.48 69.7616 22.652 69.7616 21.77C69.7616 19.016 71.7956 17 74.4596 17C75.1616 17 76.0076 17.144 76.7456 17.414L76.0796 19.088C75.5036 18.872 74.9816 18.764 74.4956 18.764C72.8576 18.764 71.7236 19.988 71.7236 21.752C71.7236 22.706 72.0476 23.552 72.6596 24.236ZM79.5512 26V23.408H81.6752V26H79.5512ZM83.8579 26V23.408H85.9819V26H83.8579ZM97.1056 24.236C97.4116 24.236 97.4656 24.578 97.4656 25.118C97.4656 25.658 97.4116 26 97.1056 26H92.6956V13.256H94.6576V24.236H97.1056ZM101.118 13.598V15.686H99.1556V13.598H101.118ZM103.17 24.236C103.476 24.236 103.53 24.578 103.53 25.118C103.53 25.658 103.476 26 103.17 26H97.1036C96.7976 26 96.7436 25.658 96.7436 25.118C96.7436 24.578 96.7976 24.236 97.1036 24.236H99.1556V17H101.118V24.236H103.17ZM105.634 13.598V15.686H103.672V13.598H105.634ZM108.712 13.598V15.686H106.75V13.598H108.712ZM109.234 24.236C109.54 24.236 109.594 24.578 109.594 25.118C109.594 25.658 109.54 26 109.234 26H103.168C102.862 26 102.808 25.658 102.808 25.118C102.808 24.578 102.862 24.236 103.168 24.236H105.22V17H107.182V24.236H109.234ZM121.887 24.236C122.193 24.236 122.247 24.578 122.247 25.118C122.247 25.658 122.193 26 121.887 26H109.233C108.927 26 108.873 25.658 108.873 25.118C108.873 24.578 108.927 24.236 109.233 24.236H111.447C111.339 23.552 111.267 22.688 111.267 21.77C111.267 20.024 111.573 18.314 111.789 17.486C112.329 17.27 113.625 17 115.101 17C118.251 17 119.835 18.224 119.835 21.59V24.236H121.887ZM113.409 24.236H117.873V21.59C117.873 19.358 117.297 18.764 115.101 18.764C114.543 18.764 113.967 18.818 113.481 18.89C113.337 19.772 113.229 20.834 113.229 21.77C113.229 22.616 113.319 23.552 113.409 24.236ZM128.999 15.974C132.077 15.974 135.119 17.432 135.119 22.274V26H121.889C121.583 26 121.529 25.658 121.529 25.118C121.529 24.578 121.583 24.236 121.889 24.236H123.887V23.39C123.887 21.572 125.381 19.862 127.451 19.862C129.521 19.862 130.961 21.554 130.961 23.372V24.236H133.157V22.274C133.157 19.034 131.807 17.756 128.819 17.756C127.451 17.756 125.741 18.026 124.517 18.224L124.247 16.712C125.345 16.424 127.271 15.974 128.999 15.974ZM125.849 24.236H128.999V23.372C128.999 22.4 128.297 21.626 127.451 21.626C126.587 21.626 125.849 22.4 125.849 23.39V24.236Z" fill="white"/>
</svg>
